<svg width="118.00000000000001" height="43" xmlns="http://www.w3.org/2000/svg" fill="none">
 <defs>
  <filter id="svg_12_blur">
   <feGaussianBlur stdDeviation="0" in="SourceGraphic"/>
  </filter>
 </defs>
 <g>
  <title>Layer 1</title>
  <path stroke-width="0" stroke="null" id="svg_2" fill="#ffffff" d="m10.7174,28.4646c-1.53224,0.4016 -2.72835,0.2872 -3.58834,-0.3434c-0.85142,-0.6451 -1.47644,-1.7281 -1.87504,-3.2487l-1.33273,-5.0842c-0.40773,-1.5555 -0.39583,-2.8115 0.03569,-3.7682c0.42848,-0.9683 1.41464,-1.6548 2.95848,-2.0595c1.4742,-0.3864 2.61171,-0.3062 3.41254,0.2406c0.8008,0.5468 1.3716,1.4702 1.7124,2.7703l0.3195,1.2188l-3.04706,0.7988l-0.36969,-1.4104c-0.14301,-0.5456 -0.31059,-0.9482 -0.50274,-1.208c-0.19215,-0.2598 -0.50877,-0.3318 -0.94987,-0.2162c-0.44109,0.1156 -0.69021,0.3484 -0.74735,0.6983c-0.06018,0.3383 -0.01877,0.7803 0.12424,1.3258l1.73894,6.6339c0.14605,0.5572 0.32828,0.9684 0.54669,1.2337c0.22697,0.2507 0.5552,0.3197 0.98464,0.2071c0.4295,-0.1126 0.6643,-0.3292 0.7043,-0.6498c0.0486,-0.3353 -0.0002,-0.7815 -0.1462,-1.3387l-0.388,-1.48l3.0471,-0.7987l0.3195,1.2188c0.3468,1.3233 0.31,2.437 -0.1104,3.3412c-0.4236,0.8926 -1.3724,1.5321 -2.8466,1.9185z"/>
  <path stroke-width="0" stroke="null" id="svg_3" fill="#ffffff" d="m26.1061,25.0927c-1.0758,0.1876 -1.9568,0.1646 -2.6431,-0.069c-0.6884,-0.2454 -1.2214,-0.6823 -1.599,-1.3108c-0.3678,-0.6423 -0.6435,-1.4896 -0.8269,-2.5417l-1.7287,-9.9124l3.1387,-0.5474l1.8121,10.3912c0.101,0.5793 0.2523,1.028 0.454,1.346c0.2134,0.3161 0.5448,0.4349 0.994,0.3566c0.4492,-0.0784 0.7149,-0.3013 0.7969,-0.6689c0.0821,-0.3675 0.0726,-0.841 -0.0284,-1.4202l-1.8121,-10.3912l3.1564,-0.55043l1.7286,9.91243c0.1835,1.0521 0.205,1.9437 0.0645,2.6747c-0.1426,0.7192 -0.4962,1.3107 -1.0609,1.7746c-0.555,0.45 -1.3703,0.7689 -2.4461,0.9565z"/>
  <path stroke-width="0" stroke="null" id="svg_4" fill="#ffffff" d="m36.0501,8.71582l3.2053,-0.32814l1.4849,14.50422l-3.2053,0.3281l-1.4849,-14.50418z"/>
  <path stroke-width="0" stroke="null" id="svg_5" fill="#ffffff" d="m52.1417,22.3749c-1.3912,0.0473 -2.441,-0.2832 -3.1495,-0.9915c-0.6969,-0.7207 -1.0967,-1.8838 -1.1994,-3.4892l2.7384,-0.5074c0.0434,0.923 0.174,1.585 0.3917,1.9858c0.2294,0.3884 0.5539,0.5755 0.9737,0.5612c0.5397,-0.0184 0.7975,-0.3813 0.7734,-1.0889c-0.0192,-0.5637 -0.1676,-1.0449 -0.4454,-1.4437c-0.2657,-0.3992 -0.6823,-0.8233 -1.2499,-1.2723l-1.2966,-1.0545c-0.6416,-0.5065 -1.1463,-1.0476 -1.5141,-1.6234c-0.3562,-0.5883 -0.5482,-1.2901 -0.5759,-2.1057c-0.0417,-1.2233 0.2861,-2.17696 0.9833,-2.86106c0.7091,-0.68451 1.6993,-1.04838 2.9706,-1.09163c1.3792,-0.04692 2.3283,0.32302 2.8473,1.10983c0.5311,0.7864 0.8342,1.75466 0.9093,2.90476l-2.7587,0.4361c-0.0497,-0.7548 -0.1401,-1.292 -0.271,-1.6118c-0.1194,-0.3321 -0.3709,-0.49164 -0.7547,-0.47858c-0.2759,0.00938 -0.4876,0.13665 -0.6354,0.38178c-0.1362,0.2328 -0.1993,0.4931 -0.1896,0.7809c0.0168,0.4918 0.1388,0.9018 0.3661,1.2303c0.2393,0.3281 0.6121,0.6996 1.1185,1.1146l1.2414,1.0204c0.7404,0.5872 1.3201,1.2158 1.7392,1.886c0.419,0.6701 0.6444,1.4729 0.6762,2.4084c0.0233,0.6836 -0.1174,1.3127 -0.422,1.8874c-0.2931,0.5623 -0.7219,1.0151 -1.2866,1.3585c-0.5646,0.3434 -1.2247,0.528 -1.9803,0.5537z"/>
  <path stroke-width="0" stroke="null" id="svg_6" fill="#ffffff" d="m63.5658,7.52103l3.2201,0.10956l-0.4957,14.57161l-3.2201,-0.1096l0.4957,-14.57157z"/>
  <path stroke-width="0" stroke="null" id="svg_7" fill="#ffffff" d="m75.3445,8.11514l2.2556,0.23689l2.2384,7.29367l0.7333,-6.98158l2.6494,0.27824l-1.5228,14.50024l-2.1661,-0.2275l-2.1821,-7.8307l-0.7896,7.5186l-2.7389,-0.2876l1.5228,-14.50026z"/>
  <path stroke-width="0" stroke="null" id="svg_8" fill="#ffffff" d="m92.11,10.2333l6.4424,1.1931l-0.3998,2.1593l-3.2744,-0.6064l-0.6588,3.5575l2.4956,0.4622l-0.4065,2.1947l-2.4955,-0.4622l-0.7932,4.2832l3.3097,0.6129l-0.3966,2.1416l-6.4779,-1.1996l2.655,-14.3363z"/>
  <path stroke-width="0" stroke="null" id="svg_9" fill="#ffffff" d="m106.629,28.5151c-1.346,-0.3564 -2.255,-0.9761 -2.729,-1.8588c-0.459,-0.8913 -0.506,-2.1203 -0.141,-3.6869l2.768,0.305c-0.225,0.8963 -0.291,1.5678 -0.198,2.0144c0.107,0.4381 0.364,0.7109 0.77,0.8185c0.522,0.1383 0.874,-0.1348 1.055,-0.8192c0.144,-0.5451 0.141,-1.0487 -0.009,-1.5107c-0.139,-0.459 -0.416,-0.9853 -0.83,-1.5791l-0.936,-1.384c-0.468,-0.6702 -0.795,-1.3341 -0.981,-1.9916c-0.171,-0.666 -0.152,-1.3935 0.057,-2.1822c0.313,-1.1832 0.902,-2.0016 1.767,-2.4552c0.877,-0.4505 1.93,-0.5129 3.16,-0.1872c1.334,0.3534 2.135,0.9817 2.405,1.8849c0.281,0.9063 0.292,1.9208 0.032,3.0436l-2.767,-0.3793c0.17,-0.7369 0.239,-1.2774 0.206,-1.6213c-0.019,-0.3524 -0.213,-0.5778 -0.585,-0.6762c-0.266,-0.0707 -0.506,-0.01 -0.718,0.1821c-0.198,0.1835 -0.333,0.4144 -0.407,0.6928c-0.126,0.4756 -0.128,0.9035 -0.005,1.2836c0.134,0.3832 0.384,0.8466 0.749,1.3902l0.894,1.3354c0.539,0.776 0.912,1.5453 1.12,2.3079c0.208,0.7626 0.192,1.5963 -0.048,2.501c-0.175,0.6612 -0.492,1.2229 -0.949,1.6852c-0.443,0.4537 -0.985,0.7633 -1.624,0.929c-0.64,0.1657 -1.325,0.1518 -2.056,-0.0419z"/>
  <text style="cursor: move;" filter="url(#svg_12_blur)" font-style="normal" font-weight="normal" transform="matrix(0.490111 0 0 0.475687 3.50311 3.94039)" stroke="null" xml:space="preserve" text-anchor="start" font-family="Noto Sans JP" font-size="15" stroke-width="0" id="svg_12" y="68.92591" x="82.99392" fill="#ffffff">EST. 2013</text>
 </g>
</svg>